<svg width="80" height="81" viewBox="0 0 80 81" fill="none" xmlns="http://www.w3.org/2000/svg">
<rect width="80" height="81" fill="#E4E4E4"/>
<rect width="1400" height="2060" transform="translate(-210 -218.523)" fill="white"/>
<path d="M0 0.476562H57.1429C69.7665 0.476562 80 10.7101 80 23.3337V57.6194C80 70.2431 69.7665 80.4766 57.1429 80.4766H0V0.476562Z" fill="#1E0E62"/>
<g clip-path="url(#clip0_1762_2495)">
<path d="M39.5452 49.8035C51.4668 49.8035 61.1312 45.4855 61.1312 40.1589C61.1312 34.8324 51.4668 30.5144 39.5452 30.5144C27.6236 30.5144 17.9593 34.8324 17.9593 40.1589C17.9593 45.4855 27.6236 49.8035 39.5452 49.8035Z" fill="#BD1E2D"/>
<path d="M61.1312 40.1589C61.1312 34.8324 51.4668 30.5144 39.5452 30.5144V49.8034C51.4668 49.8034 61.1312 45.4854 61.1312 40.1589Z" fill="#961E2D"/>
<path d="M16.1847 48.0797V52.9205H62.7528V48.0797H62.7527L64.267 39.8999C64.267 39.8999 49.2763 41.0832 44.5838 37.4616C43.6662 36.7533 43.3961 35.7951 43.9535 34.949L46.6116 30.9147L39.4687 24.8918L32.3258 30.9147L34.9839 34.949C35.1297 35.1486 35.2298 35.3779 35.2771 35.6205C35.3244 35.8632 35.3177 36.1133 35.2575 36.353C35.1974 36.5928 35.0852 36.8164 34.929 37.008C34.7727 37.1996 34.5763 37.3544 34.3535 37.4616C30.1663 39.8135 13.7144 38.1414 13.7144 38.1414" fill="#FECA36"/>
<path d="M65.1429 38.0386C65.1429 38.0386 49.7547 41.1481 44.6604 37.4525C43.7157 36.7673 43.4726 35.7861 44.03 34.94L46.6882 30.9057L39.5452 24.8828V52.9114H62.8294L62.584 48.0823" fill="#F2B421"/>
<path d="M62.8274 46.511H15.5551V48.6463H62.8274V46.511Z" fill="#FFF100"/>
<path d="M63.2323 46.511H39.5453V48.6463H63.2323V46.511Z" fill="#FFBE00"/>
<path d="M63.2324 48.6467H15.5551V53.6901H63.2324V48.6467Z" fill="#F3B31D"/>
</g>
<rect y="11" width="7" height="1625" fill="#1E0E62"/>
<defs>
<clipPath id="clip0_1762_2495">
<rect width="51.4286" height="30.8571" fill="white" transform="translate(13.7144 23.8579)"/>
</clipPath>
</defs>
</svg>
