<svg width="80" height="81" viewBox="0 0 80 81" fill="none" xmlns="http://www.w3.org/2000/svg">
<rect width="80" height="81" fill="#E4E4E4"/>
<rect width="1400" height="2060" transform="translate(-210 -1218.52)" fill="white"/>
<path d="M0 0.476562H57.1429C69.7665 0.476562 80 10.7101 80 23.3337V57.6194C80 70.2431 69.7665 80.4766 57.1429 80.4766H0V0.476562Z" fill="#5c0000"/>
<g clip-path="url(#clip0_1762_2495)">
<path d="M39.472 50.5646C52.1133 50.5646 62.3611 45.927 62.3611 40.2062C62.3611 34.4853 52.1133 29.8477 39.472 29.8477C26.8307 29.8477 16.5829 34.4853 16.5829 40.2062C16.5829 45.927 26.8307 50.5646 39.472 50.5646Z" fill="#BD1E2D"/>
<path d="M62.3611 40.2061C62.3611 34.4853 52.1133 29.8477 39.472 29.8477V50.5646C52.1133 50.5646 62.3611 45.9269 62.3611 40.2061Z" fill="#961E2D"/>
<path d="M65.0086 28.4179C65.4705 27.0077 61.7399 36.553 61.7399 36.553C61.3389 36.8879 60.8789 37.1451 60.3835 37.3113C58.8039 37.9284 56.4377 37.547 55.4472 36.5811L53.5649 34.1441L50.9302 38.0854C49.5964 39.4441 46.4597 39.6265 44.7212 38.4464C43.726 37.7709 43.4667 36.809 44.0554 35.9776L46.8628 32.0136L39.3186 26.0957L31.7743 32.0136L34.5817 35.9777C35.1704 36.809 34.9111 37.771 33.9159 38.4465C32.1774 39.6265 29.0407 39.4441 27.7069 38.0854L24.9925 34.1441L22.4931 36.5812C21.5026 37.5471 19.392 37.8336 17.8124 37.2166C17.391 37.0634 17.0097 36.8167 16.6972 36.4951L13.7144 27.931L16.5829 48.6695L14.726 53.636H63.9112L61.8397 49.0699V48.8418C61.8397 48.8418 63.3769 33.3991 65.0086 28.4179Z" fill="#FECA36"/>
<path d="M61.7971 36.4951C61.4749 36.818 61.0844 37.0645 60.6543 37.2165C59.9636 37.5239 59.1994 37.6274 58.4518 37.5148C57.7042 37.4022 57.0043 37.0783 56.4347 36.5811L53.5859 34.1869L50.8857 38.1282C49.5188 39.4869 46.6469 39.6265 44.8653 38.4464C43.8455 37.7709 43.5797 36.809 44.183 35.9776L47.0603 32.0136L39.3286 26.0957V53.636H63.9544L62.6566 48.9903C62.6566 48.9903 63.4337 36.0233 65.1358 28.2261C65.3222 27.3724 61.7971 36.4951 61.7971 36.4951Z" fill="#F2B421"/>
<path d="M64.5008 49.1513H14.8971L16.3684 47.0415H61.9027L64.5008 49.1513Z" fill="#FFF100"/>
<path d="M64.5008 49.1513H39.4718V47.0415H62.7899L64.5008 49.1513Z" fill="#FFBE00"/>
<path d="M39.4383 38.791L36.3877 40.5527V44.0749L39.4383 45.8366L42.489 44.0749V40.5527L39.4383 38.791Z" fill="#27A9E0"/>
<path d="M37.5814 43.3856V41.2418L39.4383 40.1699L41.2947 41.2418V43.3856L39.4383 44.4575L37.5814 43.3856Z" fill="#1C75BB"/>
<path d="M39.4384 38.791V45.8366L42.489 44.0749V40.5527L39.4384 38.791Z" fill="#1C75BB"/>
<path d="M39.4384 40.1699V44.4575L41.2947 43.3856V41.2418L39.4384 40.1699Z" fill="#27A9E0"/>
<path d="M37.4003 40.7328C37.3675 40.7329 37.3355 40.7221 37.3095 40.7022C37.2834 40.6822 37.2647 40.6542 37.2562 40.6225C37.2477 40.5909 37.2499 40.5572 37.2624 40.5269C37.275 40.4966 37.2972 40.4713 37.3256 40.4549L38.9081 39.5405C38.9423 39.5207 38.983 39.5154 39.0211 39.5256C39.0593 39.5358 39.0918 39.5608 39.1116 39.595C39.1313 39.6292 39.1367 39.6699 39.1265 39.708C39.1163 39.7462 39.0913 39.7787 39.0571 39.7985L37.4745 40.7129C37.452 40.726 37.4263 40.7329 37.4003 40.7328V40.7328Z" fill="white"/>
<path d="M36.8974 42.4625C36.8778 42.4625 36.8585 42.4587 36.8404 42.4512C36.8223 42.4437 36.8059 42.4327 36.7921 42.4189C36.7782 42.4051 36.7673 42.3887 36.7598 42.3706C36.7523 42.3525 36.7485 42.3331 36.7485 42.3136V41.3467C36.7485 41.3072 36.7642 41.2693 36.7921 41.2414C36.82 41.2134 36.8579 41.1978 36.8974 41.1978C36.9369 41.1978 36.9748 41.2134 37.0027 41.2414C37.0306 41.2693 37.0463 41.3072 37.0463 41.3467V42.3136C37.0463 42.3331 37.0425 42.3525 37.035 42.3706C37.0275 42.3887 37.0166 42.4051 37.0027 42.4189C36.9889 42.4327 36.9725 42.4437 36.9544 42.4512C36.9363 42.4587 36.917 42.4625 36.8974 42.4625V42.4625Z" fill="white"/>
<path d="M51.8654 40.2178L49.2084 41.7515V44.8194L51.8654 46.3537L54.5224 44.8194V41.7515L51.8654 40.2178Z" fill="#27A9E0"/>
<path d="M50.2485 44.2196V42.3523L51.8653 41.4189L53.4827 42.3523V44.2196L51.8653 45.153L50.2485 44.2196Z" fill="#1C75BB"/>
<path d="M51.8654 40.2178V46.3537L54.5223 44.8194V41.7515L51.8654 40.2178Z" fill="#1C75BB"/>
<path d="M51.8654 41.4189V45.153L53.4827 44.2196V42.3523L51.8654 41.4189Z" fill="#27A9E0"/>
<path d="M50.0906 41.9088C50.0621 41.9088 50.0343 41.8994 50.0116 41.882C49.9889 41.8647 49.9726 41.8403 49.9652 41.8127C49.9578 41.7851 49.9597 41.7558 49.9706 41.7294C49.9815 41.703 50.0009 41.681 50.0256 41.6667L51.4039 40.8703C51.4186 40.8617 51.435 40.856 51.4519 40.8537C51.4688 40.8514 51.4861 40.8525 51.5026 40.8569C51.5191 40.8612 51.5346 40.8688 51.5482 40.8792C51.5618 40.8896 51.5732 40.9026 51.5817 40.9174C51.5903 40.9322 51.5958 40.9486 51.598 40.9655C51.6002 40.9825 51.599 40.9997 51.5946 41.0162C51.5901 41.0327 51.5824 41.0482 51.5719 41.0617C51.5615 41.0752 51.5484 41.0865 51.5336 41.095L50.1553 41.8914C50.1357 41.9028 50.1134 41.9088 50.0906 41.9088Z" fill="white"/>
<path d="M49.6527 43.4155C49.6356 43.4155 49.6188 43.4122 49.603 43.4057C49.5873 43.3991 49.573 43.3896 49.5609 43.3775C49.5489 43.3655 49.5393 43.3512 49.5328 43.3355C49.5263 43.3197 49.5229 43.3028 49.5229 43.2858V42.4437C49.5229 42.4093 49.5366 42.3763 49.5609 42.352C49.5853 42.3276 49.6183 42.314 49.6527 42.314C49.6871 42.314 49.72 42.3276 49.7444 42.352C49.7687 42.3763 49.7824 42.4093 49.7824 42.4437V43.2858C49.7824 43.3028 49.779 43.3197 49.7725 43.3355C49.766 43.3512 49.7564 43.3655 49.7444 43.3775C49.7323 43.3896 49.718 43.3991 49.7023 43.4057C49.6866 43.4122 49.6697 43.4155 49.6527 43.4155V43.4155Z" fill="white"/>
<path d="M27.0107 40.2173L24.3537 41.7515V44.8195L27.0107 46.3538L29.6676 44.8195V41.7515L27.0107 40.2173Z" fill="#27A9E0"/>
<path d="M25.3939 44.2196V42.3523L27.0107 41.4189L28.6281 42.3523V44.2196L27.0107 45.153L25.3939 44.2196Z" fill="#1C75BB"/>
<path d="M27.0107 40.2173V46.3538L29.6676 44.8195V41.7515L27.0107 40.2173Z" fill="#1C75BB"/>
<path d="M27.0107 41.4189V45.153L28.6281 44.2196V42.3523L27.0107 41.4189Z" fill="#27A9E0"/>
<path d="M25.2358 41.9084C25.2073 41.9085 25.1795 41.8991 25.1568 41.8817C25.1341 41.8643 25.1178 41.8399 25.1104 41.8123C25.103 41.7847 25.1049 41.7555 25.1158 41.7291C25.1268 41.7027 25.1461 41.6806 25.1709 41.6664L26.5491 40.8699C26.5789 40.8527 26.6143 40.8481 26.6475 40.857C26.6808 40.8659 26.7091 40.8876 26.7263 40.9174C26.7435 40.9472 26.7482 40.9826 26.7393 41.0159C26.7304 41.0491 26.7086 41.0774 26.6788 41.0946L25.3006 41.8911C25.2809 41.9024 25.2586 41.9084 25.2358 41.9084V41.9084Z" fill="white"/>
<path d="M24.7979 43.4152C24.7808 43.4152 24.764 43.4119 24.7482 43.4054C24.7325 43.3989 24.7182 43.3893 24.7061 43.3773C24.6941 43.3652 24.6845 43.3509 24.678 43.3352C24.6715 43.3194 24.6681 43.3025 24.6682 43.2855V42.4433C24.6684 42.4091 24.6822 42.3763 24.7065 42.3522C24.7308 42.328 24.7636 42.3145 24.7979 42.3145C24.8322 42.3145 24.865 42.328 24.8893 42.3522C24.9137 42.3763 24.9274 42.4091 24.9277 42.4433V43.2855C24.9277 43.3026 24.9243 43.3194 24.9178 43.3352C24.9113 43.3509 24.9017 43.3652 24.8897 43.3773C24.8776 43.3893 24.8633 43.3989 24.8475 43.4054C24.8318 43.4119 24.8149 43.4152 24.7979 43.4152V43.4152Z" fill="white"/>
<path d="M64.5007 49.1641H14.8969V54.1914H64.5007V49.1641Z" fill="#F3B31D"/>
</g>
<rect y="-989" width="7" height="1625" fill="#5c0000"/>
<defs>
<clipPath id="clip0_1762_2495">
<rect width="51.4286" height="28.5714" fill="white" transform="translate(13.7144 25.8579)"/>
</clipPath>
</defs>
</svg>
