<svg width="80" height="81" viewBox="0 0 80 81" fill="none" xmlns="http://www.w3.org/2000/svg">
<rect width="80" height="81" fill="#E4E4E4"/>
<rect width="1400" height="2060" transform="translate(-210 -454.523)" fill="white"/>
<path d="M0 0.476562H57.1429C69.7665 0.476562 80 10.7101 80 23.3337V57.6194C80 70.2431 69.7665 80.4766 57.1429 80.4766H0V0.476562Z" fill="#1E0E62"/>
<g clip-path="url(#clip0_1762_2495)">
<path d="M39.3485 49.8503C51.2989 49.8503 60.9866 45.5219 60.9866 40.1825C60.9866 34.8431 51.2989 30.5146 39.3485 30.5146C27.3982 30.5146 17.7104 34.8431 17.7104 40.1825C17.7104 45.5219 27.3982 49.8503 39.3485 49.8503Z" fill="#BD1E2D"/>
<path d="M60.9866 40.1824C60.9866 34.8431 51.2989 30.5146 39.3485 30.5146V49.8503C51.2989 49.8503 60.9866 45.5218 60.9866 40.1824Z" fill="#961E2D"/>
<path d="M15.945 48.1157V52.9664H62.6257V48.1157H62.6255L64.1435 39.919C64.1435 39.919 49.1166 41.1048 44.4128 37.4757C43.493 36.7661 43.2222 35.8058 43.7809 34.958L46.4454 30.9154L39.2853 24.8801L32.1251 30.9154L34.7896 34.958C34.9358 35.158 35.0361 35.3878 35.0835 35.6309C35.131 35.8741 35.1243 36.1247 35.064 36.365C35.0037 36.6053 34.8912 36.8293 34.7346 37.0213C34.578 37.2133 34.3811 37.3684 34.1578 37.4757C29.9605 39.8325 13.7144 38.171 13.7144 38.171" fill="#FECA36"/>
<path d="M65.1429 38.0618C65.1429 38.0618 49.4831 41.1254 44.3765 37.4222C43.4296 36.7356 43.1859 35.7523 43.7446 34.9045L46.4093 30.8619L39.249 24.8267V52.9129H62.5894V48.0622" fill="#F2B421"/>
<path d="M62.688 46.55H15.4423V48.6906H62.688V46.55Z" fill="#FFF100"/>
<path d="M63.2199 46.55H39.4122V48.6906H63.2199V46.55Z" fill="#FFBE00"/>
<path d="M39.3489 40.6995L36.5258 42.3287V45.5884L39.3489 47.2182L42.1713 45.5884V42.3287L39.3489 40.6995Z" fill="#27A9E0"/>
<path d="M37.6307 44.9507V42.967L39.3489 41.9749L41.0665 42.967V44.9507L39.3489 45.9428L37.6307 44.9507Z" fill="#1C75BB"/>
<path d="M39.3488 40.6995V47.2182L42.1713 45.5884V42.3287L39.3488 40.6995Z" fill="#1C75BB"/>
<path d="M39.3488 41.9749V45.9428L41.0664 44.9507V42.967L39.3488 41.9749Z" fill="#27A9E0"/>
<path d="M37.4628 42.4956C37.4325 42.4956 37.4029 42.4857 37.3788 42.4672C37.3547 42.4488 37.3374 42.4229 37.3295 42.3935C37.3216 42.3642 37.3236 42.3331 37.3352 42.3051C37.3469 42.277 37.3674 42.2536 37.3937 42.2384L38.8581 41.3922C38.8737 41.3832 38.891 41.3773 38.909 41.375C38.9269 41.3726 38.9452 41.3738 38.9626 41.3785C38.9801 41.3832 38.9965 41.3912 39.0109 41.4023C39.0252 41.4133 39.0373 41.427 39.0463 41.4427C39.0554 41.4584 39.0613 41.4757 39.0636 41.4936C39.066 41.5116 39.0648 41.5298 39.0601 41.5473C39.0554 41.5648 39.0473 41.5812 39.0363 41.5955C39.0253 41.6099 39.0116 41.6219 38.9959 41.631L37.5315 42.4771C37.5107 42.4892 37.487 42.4956 37.4628 42.4956V42.4956Z" fill="white"/>
<path d="M36.9975 44.0965C36.9795 44.0965 36.9615 44.0929 36.9448 44.086C36.9281 44.0791 36.9129 44.0689 36.9001 44.0561C36.8873 44.0433 36.8771 44.0281 36.8702 44.0114C36.8633 43.9947 36.8597 43.9768 36.8597 43.9587V43.0639C36.86 43.0275 36.8746 42.9927 36.9004 42.9671C36.9262 42.9414 36.9612 42.927 36.9976 42.927C37.034 42.927 37.0689 42.9414 37.0947 42.9671C37.1205 42.9927 37.1351 43.0275 37.1354 43.0639V43.9587C37.1354 43.9768 37.1318 43.9947 37.1249 44.0114C37.118 44.0281 37.1078 44.0433 37.095 44.0561C37.0822 44.0689 37.067 44.0791 37.0503 44.086C37.0336 44.0929 37.0156 44.0965 36.9975 44.0965V44.0965Z" fill="white"/>
<path d="M63.22 48.6907H15.4423V53.7462H63.22V48.6907Z" fill="#F3B31D"/>
</g>
<rect y="-225" width="7" height="1625" fill="#1E0E62"/>
<defs>
<clipPath id="clip0_1762_2495">
<rect width="51.4286" height="30.8571" fill="white" transform="translate(13.7144 23.8579)"/>
</clipPath>
</defs>
</svg>
