<svg width="80" height="81" viewBox="0 0 80 81" fill="none" xmlns="http://www.w3.org/2000/svg">
<rect width="80" height="81" fill="#E4E4E4"/>
<rect width="1400" height="2060" transform="translate(-210 -1482.52)" fill="white"/>
<path d="M0 0.476562H57.1429C69.7665 0.476562 80 10.7101 80 23.3337V57.6194C80 70.2431 69.7665 80.4766 57.1429 80.4766H0V0.476562Z" fill="#1E0E62"/>
<g clip-path="url(#clip0_1762_2495)">
<path d="M49.5326 37.215L39.196 26.3447L28.8598 37.215L16.0451 30.3348L16.5896 46.3543H39.196H61.4203L62.2817 30.2828L49.5326 37.215Z" fill="#FECA36"/>
<path opacity="0.56" d="M39.196 26.3447L49.5327 37.215L62.3468 30.2478L61.4203 46.3543H39.196V26.3447Z" fill="#F4AE00"/>
<path d="M61.2605 46.354H16.5897L15.4568 48.1665V52.618H62.6462L61.2605 46.354Z" fill="#F3B31D"/>
<path d="M61.2605 46.354H16.5897L15.4568 48.1665H62.5258L61.2605 46.354Z" fill="#FFF100"/>
<path d="M62.526 48.1665H39.196V52.618H62.526V48.1665Z" fill="#F3B31D"/>
<path d="M61.4203 46.354H39.196V48.1665H62.5258L61.4203 46.354Z" fill="#FFBE00"/>
<path d="M63.0965 32.4302C64.2267 31.8138 64.6432 30.3979 64.0268 29.2677C63.4104 28.1376 61.9945 27.7211 60.8643 28.3375C59.7341 28.9539 59.3176 30.3698 59.9341 31.5C60.5505 32.6302 61.9664 33.0467 63.0965 32.4302Z" fill="#FFBE00"/>
<path d="M39.1961 28.6162C40.4835 28.6162 41.5272 27.5726 41.5272 26.2852C41.5272 24.9978 40.4835 23.9541 39.1961 23.9541C37.9087 23.9541 36.8651 24.9978 36.8651 26.2852C36.8651 27.5726 37.9087 28.6162 39.1961 28.6162Z" fill="#FFBE00"/>
<path d="M41.5272 26.2852C41.5272 25.979 41.4669 25.6759 41.3497 25.3931C41.2326 25.1103 41.0609 24.8533 40.8444 24.6368C40.628 24.4204 40.371 24.2487 40.0882 24.1315C39.8053 24.0144 39.5022 23.9541 39.1961 23.9541V28.6162C39.5022 28.6162 39.8053 28.5559 40.0882 28.4388C40.371 28.3216 40.628 28.1499 40.8444 27.9335C41.0609 27.717 41.2326 27.46 41.3497 27.1772C41.4669 26.8944 41.5272 26.5913 41.5272 26.2852V26.2852Z" fill="#F78D0C"/>
<path d="M64.3113 30.3965C64.3147 29.7783 64.0724 29.1841 63.6377 28.7446C63.2029 28.305 62.6114 28.0562 61.9932 28.0527L61.9675 32.7145C62.2736 32.7162 62.5771 32.6576 62.8605 32.542C63.1439 32.4265 63.4018 32.2562 63.6195 32.0409C63.8371 31.8257 64.0102 31.5697 64.1289 31.2875C64.2476 31.0054 64.3096 30.7026 64.3113 30.3965V30.3965Z" fill="#F78D0C"/>
<path d="M13.7144 30.0476C13.7113 30.5086 13.8449 30.9602 14.0984 31.3453C14.3519 31.7304 14.714 32.0316 15.1387 32.211C15.5634 32.3903 16.0318 32.4397 16.4846 32.3528C16.9374 32.2659 17.3542 32.0468 17.6824 31.723C18.0107 31.3992 18.2355 30.9854 18.3285 30.5338C18.4216 30.0823 18.3786 29.6133 18.2051 29.1861C18.0315 28.759 17.7353 28.3929 17.3537 28.1342C16.9721 27.8754 16.5223 27.7356 16.0613 27.7325C15.7552 27.7304 15.4517 27.7886 15.1681 27.9038C14.8845 28.019 14.6263 28.189 14.4084 28.404C14.1905 28.6189 14.017 28.8747 13.8979 29.1568C13.7789 29.4388 13.7165 29.7415 13.7144 30.0476V30.0476Z" fill="#FFBE00"/>
<path d="M18.3764 30.0793C18.3806 29.4611 18.1391 28.8665 17.7049 28.4264C17.2708 27.9863 16.6795 27.7366 16.0613 27.7324L16.0295 32.3944C16.6477 32.3986 17.2423 32.1571 17.6824 31.7229C18.1226 31.2888 18.3722 30.6975 18.3764 30.0793V30.0793Z" fill="#F78D0C"/>
<path d="M39.196 43.8161C41.5852 43.8161 43.5221 41.8793 43.5221 39.4901C43.5221 37.1009 41.5852 35.1641 39.196 35.1641C36.8068 35.1641 34.87 37.1009 34.87 39.4901C34.87 41.8793 36.8068 43.8161 39.196 43.8161Z" fill="#27A9E0"/>
<path d="M43.522 39.4901C43.522 38.3428 43.0663 37.2425 42.255 36.4312C41.4437 35.6199 40.3434 35.1641 39.1961 35.1641V43.8161C40.3434 43.8161 41.4437 43.3603 42.255 42.549C43.0663 41.7377 43.522 40.6374 43.522 39.4901Z" fill="#1C75BB"/>
<path d="M36.59 37.4375C36.5909 37.6393 36.6468 37.837 36.7516 38.0094C36.9649 38.1389 37.2154 38.193 37.4631 38.1631C37.7108 38.1332 37.9413 38.0211 38.1177 37.8447C38.2941 37.6683 38.4062 37.4378 38.4361 37.1902C38.466 36.9425 38.4119 36.6919 38.2825 36.4787C38.113 36.3758 37.9192 36.32 37.721 36.317C37.5228 36.314 37.3274 36.364 37.155 36.4617C36.9825 36.5594 36.8392 36.7013 36.7399 36.8729C36.6406 37.0444 36.5888 37.2394 36.59 37.4376V37.4375Z" fill="white"/>
<path d="M54.3497 41.104C54.3497 41.6404 54.1906 42.1647 53.8926 42.6107C53.5946 43.0567 53.1711 43.4042 52.6755 43.6095C52.18 43.8147 51.6347 43.8685 51.1087 43.7638C50.5826 43.6592 50.0994 43.4009 49.7201 43.0216C49.3409 42.6424 49.0826 42.1591 48.978 41.6331C48.8733 41.107 48.927 40.5617 49.1323 40.0662C49.3375 39.5707 49.6851 39.1471 50.1311 38.8491C50.5771 38.5511 51.1014 38.3921 51.6377 38.3921C51.9939 38.3921 52.3465 38.4622 52.6756 38.5985C53.0046 38.7348 53.3035 38.9346 53.5554 39.1864C53.8072 39.4382 54.007 39.7372 54.1432 40.0662C54.2795 40.3952 54.3497 40.7479 54.3497 41.104V41.104Z" fill="#27A9E0"/>
<path d="M54.3497 41.104C54.3497 40.3848 54.064 39.695 53.5554 39.1864C53.0468 38.6778 52.3571 38.3921 51.6378 38.3921V43.8159C52.3571 43.8159 53.0468 43.5302 53.5554 43.0216C54.064 42.513 54.3497 41.8233 54.3497 41.104V41.104Z" fill="#1C75BB"/>
<path d="M50.0041 39.8172C50.0047 39.9437 50.0397 40.0677 50.1054 40.1757C50.2391 40.2569 50.3962 40.2908 50.5515 40.2721C50.7067 40.2534 50.8512 40.1831 50.9618 40.0725C51.0724 39.9619 51.1427 39.8174 51.1614 39.6622C51.1801 39.5069 51.1462 39.3498 51.065 39.2161C50.957 39.1504 50.8331 39.1153 50.7066 39.1147C50.5203 39.1148 50.3416 39.1888 50.2099 39.3205C50.0781 39.4522 50.0041 39.6309 50.0041 39.8172V39.8172Z" fill="white"/>
<path d="M29.4662 41.104C29.4662 41.6404 29.3071 42.1647 29.0091 42.6107C28.7112 43.0566 28.2876 43.4042 27.7921 43.6095C27.2965 43.8147 26.7513 43.8684 26.2252 43.7638C25.6992 43.6591 25.216 43.4008 24.8367 43.0216C24.4574 42.6423 24.1992 42.1591 24.0945 41.633C23.9899 41.107 24.0436 40.5617 24.2489 40.0662C24.4541 39.5706 24.8017 39.1471 25.2477 38.8491C25.6936 38.5511 26.218 38.3921 26.7543 38.3921C27.1104 38.3921 27.4631 38.4622 27.7921 38.5985C28.1211 38.7348 28.4201 38.9346 28.6719 39.1864C28.9238 39.4382 29.1235 39.7372 29.2598 40.0662C29.3961 40.3952 29.4662 40.7479 29.4662 41.104V41.104Z" fill="#27A9E0"/>
<path d="M29.4662 41.104C29.4662 40.7479 29.3961 40.3953 29.2598 40.0662C29.1235 39.7372 28.9238 39.4382 28.672 39.1864C28.4202 38.9346 28.1212 38.7348 27.7922 38.5985C27.4632 38.4622 27.1105 38.3921 26.7544 38.3921V43.8159C27.4736 43.8159 28.1634 43.5302 28.672 43.0216C29.1805 42.513 29.4662 41.8233 29.4662 41.104Z" fill="#1C75BB"/>
<path d="M25.1206 39.8172C25.1212 39.9437 25.1562 40.0677 25.222 40.1757C25.3557 40.2569 25.5127 40.2908 25.668 40.2721C25.8233 40.2534 25.9677 40.1831 26.0783 40.0725C26.1889 39.9619 26.2592 39.8174 26.2779 39.6622C26.2967 39.5069 26.2627 39.3498 26.1816 39.2161C26.0736 39.1504 25.9496 39.1153 25.8231 39.1147C25.6368 39.1147 25.4581 39.1888 25.3264 39.3205C25.1946 39.4522 25.1206 39.6309 25.1206 39.8172V39.8172Z" fill="white"/>
</g>
<rect y="-1253" width="7" height="1625" fill="#1E0E62"/>
<defs>
<clipPath id="clip0_1762_2495">
<rect width="51.4286" height="30.8571" fill="white" transform="translate(13.7144 22.8579)"/>
</clipPath>
</defs>
</svg>
