<svg width="80" height="81" viewBox="0 0 80 81" fill="none" xmlns="http://www.w3.org/2000/svg">
<rect width="80" height="81" fill="#E4E4E4"/>
<rect width="1400" height="2060" transform="translate(-210 -1774.52)" fill="white"/>
<path d="M0 0.476562H57.1429C69.7665 0.476562 80 10.7101 80 23.3337V57.6194C80 70.2431 69.7665 80.4766 57.1429 80.4766H0V0.476562Z" fill="#1E0E62"/>
<g clip-path="url(#clip0_1762_2495)">
<path d="M60.787 39.9287L56.4025 33.2895L53.7719 36.6091L48.824 28.905L45.2537 34.2918L39.4285 26.3369L33.6034 34.2918L30.0336 28.905L25.0851 36.6091L22.4545 33.2895L18.07 39.9287L15.6276 37.3607V47.4331H39.4285H63.23V37.3607L60.787 39.9287Z" fill="#FECA36"/>
<path opacity="0.56" d="M39.4286 26.3369L45.2537 34.2918L48.8241 28.905L53.772 36.6091L56.4026 33.2895L60.7871 39.9287L63.23 37.3607V47.4331H39.4286V26.3369Z" fill="#F4AE00"/>
<path d="M64.1321 49.4548H14.7251C14.5924 49.4548 14.461 49.4286 14.3383 49.3778C14.2157 49.327 14.1043 49.2526 14.0104 49.1587C13.9165 49.0648 13.8421 48.9534 13.7913 48.8307C13.7405 48.7081 13.7144 48.5767 13.7144 48.4439V48.4439C13.7144 48.1758 13.8208 47.9187 14.0104 47.7292C14.2 47.5396 14.4571 47.4331 14.7251 47.4331H64.1321C64.4002 47.4331 64.6573 47.5396 64.8469 47.7292C65.0364 47.9187 65.1429 48.1759 65.1429 48.4439C65.1429 48.712 65.0364 48.9691 64.8469 49.1587C64.6573 49.3483 64.4002 49.4548 64.1321 49.4548Z" fill="#FFF100"/>
<path d="M64.1321 47.4331H39.4286V49.4548H64.1321C64.3998 49.4542 64.6563 49.3474 64.8454 49.1579C65.0344 48.9684 65.1406 48.7116 65.1406 48.4439C65.1406 48.1763 65.0344 47.9195 64.8454 47.73C64.6563 47.5405 64.3998 47.4337 64.1321 47.4331V47.4331Z" fill="#FFBE00"/>
<path d="M39.4286 36.1431L35.5278 38.3956V42.8997L39.4286 45.1523L43.3294 42.8997V38.3956L39.4286 36.1431Z" fill="#BD1E2D"/>
<path d="M37.0547 42.0189V39.2771L39.4285 37.9067L41.8029 39.2771V42.0189L39.4285 43.3893L37.0547 42.0189Z" fill="#961E2D"/>
<path d="M39.4286 36.1431V45.1523L43.3294 42.8997V38.3956L39.4286 36.1431Z" fill="#961E2D"/>
<path d="M39.4286 37.9067V43.3893L41.8029 42.0189V39.2771L39.4286 37.9067Z" fill="#BD1E2D"/>
<path d="M36.8226 38.6258C36.7806 38.6258 36.7398 38.612 36.7065 38.5865C36.6732 38.561 36.6493 38.5252 36.6384 38.4847C36.6275 38.4441 36.6303 38.4012 36.6464 38.3624C36.6624 38.3236 36.6908 38.2913 36.7272 38.2703L38.7507 37.101C38.7724 37.0884 38.7963 37.0802 38.8212 37.0769C38.846 37.0736 38.8713 37.0752 38.8955 37.0816C38.9197 37.0881 38.9424 37.0992 38.9623 37.1145C38.9822 37.1297 38.9989 37.1487 39.0115 37.1705C39.024 37.1922 39.0321 37.2161 39.0354 37.241C39.0386 37.2659 39.0369 37.2911 39.0304 37.3153C39.0239 37.3395 39.0126 37.3622 38.9973 37.382C38.982 37.4019 38.9629 37.4185 38.9412 37.431L36.9176 38.6003C36.8887 38.617 36.8559 38.6258 36.8226 38.6258V38.6258Z" fill="white"/>
<path d="M36.1796 40.838C36.1546 40.838 36.1299 40.8331 36.1067 40.8236C36.0836 40.814 36.0626 40.8 36.0449 40.7823C36.0273 40.7646 36.0132 40.7436 36.0037 40.7205C35.9941 40.6974 35.9892 40.6726 35.9892 40.6476V39.4112C35.9892 39.3606 36.0093 39.3122 36.045 39.2765C36.0807 39.2408 36.1291 39.2207 36.1796 39.2207C36.2302 39.2207 36.2786 39.2408 36.3143 39.2765C36.35 39.3122 36.3701 39.3606 36.3701 39.4112V40.6476C36.3701 40.6726 36.3652 40.6974 36.3556 40.7205C36.3461 40.7436 36.332 40.7646 36.3144 40.7823C36.2967 40.8 36.2757 40.814 36.2525 40.8236C36.2294 40.8331 36.2047 40.838 36.1796 40.838Z" fill="white"/>
<path d="M51.9583 38.626L49.1318 40.2576V43.5208L51.9583 45.1524L54.7842 43.5208V40.2576L51.9583 38.626Z" fill="#BD1E2D"/>
<path d="M50.2382 42.8821V40.8957L51.9583 39.9028L53.6779 40.8957V42.8821L51.9583 43.875L50.2382 42.8821Z" fill="#961E2D"/>
<path d="M51.9583 38.626V45.1524L54.7843 43.5208V40.2576L51.9583 38.626Z" fill="#961E2D"/>
<path d="M51.9583 39.9028V43.875L53.6779 42.8821V40.8957L51.9583 39.9028Z" fill="#BD1E2D"/>
<path d="M50.0702 40.4242C50.0398 40.4243 50.0102 40.4143 49.9861 40.3958C49.962 40.3773 49.9446 40.3514 49.9367 40.322C49.9288 40.2927 49.9309 40.2616 49.9425 40.2335C49.9541 40.2054 49.9747 40.1819 50.0011 40.1668L51.467 39.3196C51.4987 39.3014 51.5363 39.2965 51.5716 39.306C51.6069 39.3155 51.637 39.3386 51.6553 39.3703C51.6736 39.4019 51.6785 39.4396 51.6691 39.4749C51.6597 39.5102 51.6366 39.5403 51.605 39.5587L50.139 40.4058C50.1181 40.4179 50.0943 40.4242 50.0702 40.4242V40.4242Z" fill="white"/>
<path d="M49.6043 42.0271C49.5862 42.0271 49.5682 42.0236 49.5515 42.0166C49.5347 42.0097 49.5195 41.9996 49.5067 41.9867C49.4939 41.9739 49.4837 41.9587 49.4768 41.942C49.4699 41.9252 49.4663 41.9073 49.4664 41.8891V40.9934C49.4664 40.9568 49.4809 40.9217 49.5068 40.8959C49.5326 40.87 49.5677 40.8555 49.6043 40.8555C49.6409 40.8555 49.676 40.87 49.7019 40.8959C49.7277 40.9217 49.7423 40.9568 49.7423 40.9934V41.8891C49.7423 41.9073 49.7387 41.9252 49.7318 41.942C49.7249 41.9587 49.7147 41.9739 49.7019 41.9867C49.6891 41.9996 49.6739 42.0097 49.6571 42.0166C49.6404 42.0236 49.6224 42.0271 49.6043 42.0271V42.0271Z" fill="white"/>
<path d="M26.8994 38.626L24.0729 40.2576V43.5208L26.8994 45.1524L29.7253 43.5208V40.2576L26.8994 38.626Z" fill="#BD1E2D"/>
<path d="M25.1793 42.8821V40.8957L26.8994 39.9028L28.619 40.8957V42.8821L26.8994 43.875L25.1793 42.8821Z" fill="#961E2D"/>
<path d="M26.8994 38.626V45.1524L29.7254 43.5208V40.2576L26.8994 38.626Z" fill="#961E2D"/>
<path d="M26.8994 39.9028V43.875L28.619 42.8821V40.8957L26.8994 39.9028Z" fill="#BD1E2D"/>
<path d="M25.0112 40.4239C24.9809 40.424 24.9513 40.414 24.9272 40.3955C24.903 40.3771 24.8857 40.3511 24.8778 40.3218C24.8699 40.2924 24.8719 40.2613 24.8835 40.2332C24.8952 40.2051 24.9157 40.1817 24.9421 40.1665L26.408 39.3194C26.4237 39.3103 26.4411 39.3044 26.4591 39.302C26.477 39.2996 26.4953 39.3008 26.5128 39.3055C26.5304 39.3101 26.5468 39.3182 26.5612 39.3293C26.5756 39.3403 26.5877 39.3541 26.5967 39.3698C26.6058 39.3855 26.6117 39.4028 26.614 39.4208C26.6164 39.4388 26.6152 39.4571 26.6105 39.4746C26.6058 39.4921 26.5977 39.5085 26.5866 39.5229C26.5755 39.5373 26.5617 39.5493 26.546 39.5584L25.08 40.4055C25.0591 40.4176 25.0354 40.424 25.0112 40.4239V40.4239Z" fill="white"/>
<path d="M24.5454 42.0268C24.5273 42.0268 24.5093 42.0232 24.4926 42.0163C24.4758 42.0094 24.4606 41.9992 24.4478 41.9864C24.435 41.9736 24.4248 41.9583 24.4179 41.9416C24.411 41.9249 24.4074 41.9069 24.4074 41.8888V40.9931C24.4076 40.9566 24.4223 40.9218 24.4481 40.8961C24.474 40.8704 24.5089 40.856 24.5454 40.856C24.5818 40.856 24.6168 40.8704 24.6426 40.8961C24.6685 40.9218 24.6831 40.9566 24.6834 40.9931V41.8888C24.6834 41.9069 24.6798 41.9249 24.6729 41.9416C24.666 41.9583 24.6558 41.9736 24.643 41.9864C24.6302 41.9992 24.615 42.0094 24.5982 42.0163C24.5815 42.0232 24.5635 42.0268 24.5454 42.0268V42.0268Z" fill="white"/>
<path d="M63.2298 49.4546H15.6275V53.9498H63.2298V49.4546Z" fill="#F3B31D"/>
</g>
<rect y="-1545" width="7" height="1625" fill="#1E0E62"/>
<defs>
<clipPath id="clip0_1762_2495">
<rect width="51.4286" height="28.5714" fill="white" transform="translate(13.7144 25.8579)"/>
</clipPath>
</defs>
</svg>
