<svg width="80" height="81" viewBox="0 0 80 81" fill="none" xmlns="http://www.w3.org/2000/svg">
<rect width="80" height="81" fill="#E4E4E4"/>
<rect width="1400" height="2060" transform="translate(-210 -690.523)" fill="white"/>
<path d="M0 0.476562H57.1429C69.7665 0.476562 80 10.7101 80 23.3337V57.6194C80 70.2431 69.7665 80.4766 57.1429 80.4766H0V0.476562Z" fill="#5c0000"/>
<g clip-path="url(#clip0_1762_2495)">
<path d="M39.4203 47.6064C52.1781 47.6064 62.5203 42.7433 62.5203 36.7444C62.5203 30.7454 52.1781 25.8823 39.4203 25.8823C26.6626 25.8823 16.3204 30.7454 16.3204 36.7444C16.3204 42.7433 26.6626 47.6064 39.4203 47.6064Z" fill="#BD1E2D"/>
<path d="M62.5203 36.7444C62.5203 30.7455 52.1781 25.8823 39.4203 25.8823V47.6064C52.1781 47.6064 62.5203 42.7433 62.5203 36.7444Z" fill="#961E2D"/>
<path d="M44.8481 34.341C43.6074 33.9445 43.5878 32.7373 44.1792 31.9231L46.9998 28.0409L39.4203 22.2451L31.8409 28.0409L34.6614 31.9232C35.2529 32.7373 35.266 34.0026 33.9925 34.341C29.6011 35.5077 22.9305 34.4478 18.978 32.6658C16.1015 31.3689 13.7144 24.3125 13.7144 24.3125L16.6136 44.5382L14.7132 49.2171L63.9926 49.187L62.5203 44.5588H62.3947L65.1427 24.3316C65.1427 24.3316 60.7449 31.3929 57.8684 32.6899C53.916 34.4719 49.3723 35.7867 44.8481 34.341Z" fill="#FECA36"/>
<path d="M44.8481 34.341C43.6113 33.9383 43.5878 32.7373 44.1792 31.9231L46.9999 28.0409L39.4203 22.2451V49.2171H64.0044L62.3947 44.5588L65.1429 24.3316C65.1429 24.3316 60.9844 31.133 58.1078 32.4299C54.1553 34.2119 49.5176 35.8612 44.8481 34.341Z" fill="#F2B421"/>
<path d="M64.2818 44.7852H14.7132L16.3469 42.6738H62.5927L64.2818 44.7852Z" fill="#FFF100"/>
<path d="M64.2818 44.7852H39.4203V42.6738H62.5926L64.2818 44.7852Z" fill="#FFBE00"/>
<path d="M39.3585 36.7446L37.1581 37.9283V40.2962L39.3585 41.4798L41.5595 40.2962V37.9283L39.3585 36.7446Z" fill="#27A9E0"/>
<path d="M38.0195 39.8325V38.3917L39.3585 37.6714L40.6981 38.3917V39.8325L39.3585 40.5534L38.0195 39.8325Z" fill="#1C75BB"/>
<path d="M39.3585 36.7446V41.4798L41.5595 40.2962V37.9283L39.3585 36.7446Z" fill="#1C75BB"/>
<path d="M39.3585 37.6714V40.5534L40.6982 39.8325V38.3917L39.3585 37.6714Z" fill="#27A9E0"/>
<path d="M37.8887 38.0494C37.8702 38.0496 37.852 38.0452 37.8357 38.0364C37.8194 38.0277 37.8056 38.0149 37.7956 37.9993C37.7886 37.9879 37.784 37.9752 37.7822 37.9619C37.7804 37.9487 37.7814 37.9352 37.7851 37.9223C37.7888 37.9094 37.7952 37.8975 37.8037 37.8872C37.8123 37.8769 37.8229 37.8685 37.8349 37.8626L38.9763 37.248C39.0009 37.2346 39.0297 37.2309 39.0569 37.2377C39.0841 37.2445 39.1077 37.2613 39.1231 37.2847C39.1301 37.2961 39.1347 37.3088 39.1365 37.3221C39.1382 37.3353 39.1373 37.3488 39.1336 37.3617C39.1299 37.3745 39.1235 37.3865 39.115 37.3968C39.1064 37.4071 39.0958 37.4154 39.0838 37.4214L37.9423 38.036C37.9258 38.0448 37.9074 38.0494 37.8887 38.0494V38.0494Z" fill="white"/>
<path d="M37.5261 39.2124C37.4985 39.2133 37.4718 39.2033 37.4516 39.1846C37.4315 39.1658 37.4196 39.1398 37.4186 39.1123V38.4624C37.4206 38.4352 37.4327 38.4098 37.4526 38.3912C37.4726 38.3726 37.4988 38.3623 37.5261 38.3623C37.5533 38.3623 37.5795 38.3726 37.5995 38.3912C37.6194 38.4098 37.6316 38.4352 37.6335 38.4624V39.1123C37.6325 39.1398 37.6206 39.1658 37.6005 39.1846C37.5803 39.2033 37.5536 39.2133 37.5261 39.2124V39.2124Z" fill="white"/>
<path d="M56.7292 37.8105L55.0546 38.7117V40.5135L56.7292 41.4147L58.4045 40.5135V38.7117L56.7292 37.8105Z" fill="#27A9E0"/>
<path d="M55.7102 40.1608V39.0638L56.7292 38.5156L57.7488 39.0638V40.1608L56.7292 40.7091L55.7102 40.1608Z" fill="#1C75BB"/>
<path d="M56.7292 37.8105V41.4147L58.4044 40.5135V38.7117L56.7292 37.8105Z" fill="#1C75BB"/>
<path d="M56.7292 38.5156V40.7091L57.7488 40.1608V39.0638L56.7292 38.5156Z" fill="#27A9E0"/>
<path d="M55.6104 38.8035C55.5963 38.8037 55.5824 38.8003 55.57 38.7936C55.5576 38.7869 55.5471 38.7772 55.5395 38.7654C55.5342 38.7567 55.5307 38.747 55.5294 38.7369C55.528 38.7268 55.5287 38.7165 55.5315 38.7067C55.5344 38.697 55.5392 38.6879 55.5457 38.68C55.5522 38.6722 55.5603 38.6658 55.5694 38.6613L56.4382 38.1935C56.457 38.1833 56.4789 38.1805 56.4996 38.1856C56.5203 38.1908 56.5382 38.2036 56.55 38.2214C56.5553 38.2301 56.5587 38.2398 56.5601 38.2499C56.5615 38.26 56.5607 38.2702 56.5579 38.28C56.5551 38.2898 56.5503 38.2989 56.5437 38.3067C56.5372 38.3145 56.5291 38.3209 56.52 38.3255L55.6512 38.7933C55.6387 38.8 55.6246 38.8035 55.6104 38.8035Z" fill="white"/>
<path d="M55.3343 39.689C55.3134 39.6897 55.293 39.6821 55.2777 39.6678C55.2624 39.6536 55.2533 39.6338 55.2526 39.6128V39.1182C55.254 39.0975 55.2633 39.0781 55.2785 39.064C55.2936 39.0499 55.3136 39.042 55.3343 39.042C55.3551 39.042 55.375 39.0499 55.3902 39.064C55.4054 39.0781 55.4146 39.0975 55.4161 39.1182V39.6128C55.4153 39.6338 55.4063 39.6536 55.391 39.6678C55.3756 39.6821 55.3553 39.6897 55.3343 39.689V39.689Z" fill="white"/>
<path d="M21.9884 37.8721L20.3703 38.7426V40.4837L21.9884 41.3543L23.6064 40.4837V38.7426L21.9884 37.8721Z" fill="#27A9E0"/>
<path d="M21.0035 40.143V39.0835L21.9884 38.5532L22.9734 39.0835V40.143L21.9884 40.6727L21.0035 40.143Z" fill="#1C75BB"/>
<path d="M21.9884 37.8721V41.3543L23.6065 40.4837V38.7426L21.9884 37.8721Z" fill="#1C75BB"/>
<path d="M21.9884 38.5532V40.6727L22.9733 40.143V39.0835L21.9884 38.5532Z" fill="#27A9E0"/>
<path d="M20.9072 38.8313C20.8936 38.8315 20.8802 38.8282 20.8682 38.8218C20.8562 38.8153 20.846 38.8059 20.8387 38.7945C20.8335 38.7861 20.8302 38.7767 20.8289 38.767C20.8276 38.7572 20.8283 38.7473 20.831 38.7378C20.8337 38.7284 20.8384 38.7196 20.8447 38.712C20.851 38.7045 20.8588 38.6983 20.8676 38.6939L21.707 38.242C21.7251 38.2321 21.7462 38.2294 21.7662 38.2344C21.7862 38.2394 21.8036 38.2517 21.8149 38.2689C21.8201 38.2773 21.8234 38.2867 21.8247 38.2964C21.8261 38.3062 21.8253 38.3161 21.8226 38.3256C21.8199 38.335 21.8152 38.3438 21.8089 38.3514C21.8026 38.3589 21.7948 38.3651 21.786 38.3695L20.9466 38.8214C20.9345 38.8279 20.921 38.8313 20.9072 38.8313V38.8313Z" fill="white"/>
<path d="M20.6405 39.6862C20.6202 39.6869 20.6005 39.6795 20.5857 39.6657C20.5709 39.6519 20.5622 39.6328 20.5615 39.6126V39.1347C20.5629 39.1147 20.5718 39.096 20.5865 39.0823C20.6011 39.0686 20.6204 39.061 20.6405 39.061C20.6605 39.061 20.6798 39.0686 20.6945 39.0823C20.7092 39.096 20.7181 39.1147 20.7195 39.1347V39.6126C20.7188 39.6328 20.71 39.6519 20.6952 39.6657C20.6804 39.6796 20.6607 39.6869 20.6405 39.6862Z" fill="white"/>
<path d="M64.2815 44.7847H14.7132V50.0421H64.2815V44.7847Z" fill="#F3B31D"/>
</g>
<rect y="-461" width="7" height="1625" fill="#5c0000"/>
<defs>
<clipPath id="clip0_1762_2495">
<rect width="51.4286" height="28.5714" fill="white" transform="translate(13.7144 21.8579)"/>
</clipPath>
</defs>
</svg>
