<svg width="80" height="81" viewBox="0 0 80 81" fill="none" xmlns="http://www.w3.org/2000/svg">
<rect width="80" height="81" fill="#E4E4E4"/>
<rect width="1400" height="2060" transform="translate(-210 -954.523)" fill="white"/>
<path d="M0 0.476562H57.1429C69.7665 0.476562 80 10.7101 80 23.3337V57.6194C80 70.2431 69.7665 80.4766 57.1429 80.4766H0V0.476562Z" fill="#1E0E62"/>
<g clip-path="url(#clip0_1762_2495)">
<path d="M39.4287 47.9039C51.9927 47.9039 62.1779 43.3438 62.1779 37.7188C62.1779 32.0937 51.9927 27.5337 39.4287 27.5337C26.8647 27.5337 16.6795 32.0937 16.6795 37.7188C16.6795 43.3438 26.8647 47.9039 39.4287 47.9039Z" fill="#BD1E2D"/>
<path d="M62.1778 37.7187C62.1778 32.0937 51.9927 27.5337 39.4286 27.5337V47.9038C51.9927 47.9038 62.1778 43.3438 62.1778 37.7187Z" fill="#961E2D"/>
<path d="M44.168 35.9772C43.0847 35.5775 43.0675 34.3605 43.584 33.5397L46.0468 29.626L39.4287 23.7832L32.8105 29.626L35.2733 33.5397C35.7897 34.3605 35.8012 35.6361 34.6893 35.9772C30.8548 37.1533 22.0228 35.8471 18.5716 34.0506C16.06 32.7432 13.7144 25.8866 13.7144 25.8866L16.6056 46.2718L17.8551 50.974H61.0023V46.2779H61.0021L65.1429 25.8866C65.1429 25.8866 61.0663 33.8972 58.5547 35.2046C55.1035 37.0011 48.1184 37.4347 44.168 35.9772Z" fill="#FECA36"/>
<path d="M44.1514 35.9772C43.0715 35.5712 43.0509 34.3605 43.5674 33.5397L46.0303 29.626L39.412 23.7832V50.974H60.9857L62.2285 46.1636L65.1265 25.8866C65.1265 25.8866 61.0497 33.8972 58.538 35.2046C55.0869 37.0011 48.2287 37.5098 44.1514 35.9772Z" fill="#F2B421"/>
<path d="M64.2217 46.4912H14.6358L16.3575 44.3823H62.3972L64.2217 46.4912Z" fill="#FFF100"/>
<path d="M64.2216 46.4912H39.4284V44.3823H62.4999L64.2216 46.4912Z" fill="#FFBE00"/>
<path d="M39.4285 36.9731L37.5435 38.0619V40.2383L39.4285 41.3271L41.3135 40.2383V38.0619L39.4285 36.9731Z" fill="#27A9E0"/>
<path d="M38.2814 39.8128V38.4881L39.4284 37.8257L40.5761 38.4881V39.8128L39.4284 40.4752L38.2814 39.8128Z" fill="#1C75BB"/>
<path d="M39.4284 36.9731V41.3271L41.314 40.2383V38.0619L39.4284 36.9731Z" fill="#1C75BB"/>
<path d="M39.4284 37.8257V40.4752L40.576 39.8128V38.4881L39.4284 37.8257Z" fill="#27A9E0"/>
<path d="M38.1693 38.173C38.149 38.173 38.1293 38.1663 38.1132 38.154C38.0971 38.1417 38.0856 38.1244 38.0803 38.1048C38.075 38.0852 38.0764 38.0645 38.0842 38.0457C38.0919 38.027 38.1056 38.0114 38.1232 38.0012L39.101 37.4362C39.1115 37.4301 39.1231 37.4262 39.1351 37.4246C39.147 37.423 39.1592 37.4238 39.1709 37.427C39.1826 37.4301 39.1935 37.4355 39.2031 37.4428C39.2127 37.4502 39.2208 37.4594 39.2268 37.4699C39.2328 37.4803 39.2368 37.4919 39.2383 37.5039C39.2399 37.5158 39.2391 37.528 39.236 37.5397C39.2329 37.5514 39.2275 37.5623 39.2201 37.5719C39.2128 37.5815 39.2036 37.5896 39.1931 37.5956L38.2152 38.1607C38.2013 38.1687 38.1854 38.173 38.1693 38.173Z" fill="white"/>
<path d="M37.8586 39.242C37.8465 39.242 37.8345 39.2396 37.8233 39.235C37.8122 39.2304 37.802 39.2236 37.7935 39.2151C37.7849 39.2065 37.7782 39.1964 37.7735 39.1852C37.7689 39.174 37.7665 39.1621 37.7665 39.15V38.5525C37.7665 38.5281 37.7762 38.5047 37.7935 38.4874C37.8108 38.4701 37.8342 38.4604 37.8586 38.4604C37.883 38.4604 37.9064 38.4701 37.9236 38.4874C37.9409 38.5047 37.9506 38.5281 37.9506 38.5525V39.15C37.9506 39.162 37.9482 39.174 37.9436 39.1852C37.939 39.1964 37.9322 39.2065 37.9237 39.2151C37.9151 39.2236 37.905 39.2304 37.8938 39.235C37.8826 39.2396 37.8707 39.242 37.8586 39.242V39.242Z" fill="white"/>
<path d="M49.9805 38.6152L48.587 39.4196V41.0288L49.9805 41.8337L51.3739 41.0288V39.4196L49.9805 38.6152Z" fill="#27A9E0"/>
<path d="M49.1323 40.7136V39.7344L49.9804 39.2451L50.8286 39.7344V40.7136L49.9804 41.2034L49.1323 40.7136Z" fill="#1C75BB"/>
<path d="M49.9805 38.6152V41.8337L51.3739 41.0288V39.4196L49.9805 38.6152Z" fill="#1C75BB"/>
<path d="M49.9805 39.2451V41.2034L50.8286 40.7136V39.7344L49.9805 39.2451Z" fill="#27A9E0"/>
<path d="M49.0495 39.502C49.0345 39.502 49.0199 39.4971 49.008 39.488C48.9962 39.4789 48.9876 39.4661 48.9837 39.4517C48.9798 39.4372 48.9808 39.4218 48.9865 39.408C48.9923 39.3942 49.0024 39.3826 49.0154 39.3751L49.7383 38.9574C49.746 38.9529 49.7545 38.95 49.7634 38.9488C49.7723 38.9477 49.7813 38.9482 49.7899 38.9506C49.7985 38.9529 49.8066 38.9569 49.8137 38.9623C49.8208 38.9677 49.8267 38.9745 49.8312 38.9823C49.8357 38.99 49.8386 38.9985 49.8397 39.0074C49.8409 39.0163 49.8403 39.0253 49.838 39.0339C49.8357 39.0425 49.8317 39.0506 49.8263 39.0577C49.8208 39.0648 49.814 39.0707 49.8063 39.0752L49.0834 39.493C49.0731 39.4989 49.0614 39.502 49.0495 39.502V39.502Z" fill="white"/>
<path d="M48.8198 40.2921C48.8109 40.2921 48.802 40.2904 48.7938 40.287C48.7855 40.2835 48.778 40.2785 48.7717 40.2722C48.7654 40.2659 48.7604 40.2584 48.7569 40.2501C48.7535 40.2419 48.7518 40.233 48.7518 40.2241V39.7824C48.7518 39.7643 48.7589 39.747 48.7717 39.7343C48.7845 39.7215 48.8018 39.7144 48.8198 39.7144C48.8378 39.7144 48.8551 39.7215 48.8679 39.7343C48.8807 39.747 48.8878 39.7643 48.8878 39.7824V40.2241C48.8878 40.233 48.8861 40.2419 48.8827 40.2501C48.8792 40.2584 48.8742 40.2659 48.8679 40.2722C48.8616 40.2785 48.8541 40.2835 48.8458 40.287C48.8376 40.2904 48.8287 40.2921 48.8198 40.2921V40.2921Z" fill="white"/>
<path d="M28.877 38.4604L27.3492 39.3421V41.1059L28.877 41.9882L30.4043 41.1059V39.3421L28.877 38.4604Z" fill="#27A9E0"/>
<path d="M27.9469 40.7613V39.6881L28.877 39.1509L29.8065 39.6881V40.7613L28.877 41.2979L27.9469 40.7613Z" fill="#1C75BB"/>
<path d="M28.877 38.4604V41.9882L30.4043 41.1059V39.3421L28.877 38.4604Z" fill="#1C75BB"/>
<path d="M28.877 39.1509V41.2979L29.8065 40.7613V39.6881L28.877 39.1509Z" fill="#27A9E0"/>
<path d="M27.8564 39.4327C27.8399 39.4327 27.824 39.4273 27.8109 39.4173C27.7979 39.4073 27.7885 39.3933 27.7842 39.3775C27.78 39.3616 27.7811 39.3448 27.7874 39.3296C27.7936 39.3144 27.8048 39.3017 27.819 39.2935L28.6113 38.8357C28.6198 38.8308 28.6292 38.8276 28.6389 38.8263C28.6486 38.825 28.6585 38.8257 28.6679 38.8282C28.6774 38.8308 28.6863 38.8351 28.694 38.8411C28.7018 38.8471 28.7083 38.8545 28.7132 38.863C28.7181 38.8715 28.7213 38.8808 28.7226 38.8905C28.7238 38.9002 28.7232 38.9101 28.7207 38.9196C28.7181 38.929 28.7137 38.9379 28.7078 38.9457C28.7018 38.9534 28.6944 38.96 28.6859 38.9648L27.8936 39.4227C27.8823 39.4293 27.8694 39.4327 27.8564 39.4327Z" fill="white"/>
<path d="M27.6045 40.2992C27.5947 40.2992 27.585 40.2972 27.576 40.2935C27.5669 40.2898 27.5587 40.2843 27.5518 40.2773C27.5449 40.2704 27.5394 40.2622 27.5356 40.2531C27.5319 40.2441 27.53 40.2344 27.53 40.2246V39.7404C27.5301 39.7208 27.5381 39.702 27.552 39.6881C27.566 39.6743 27.5849 39.6665 27.6046 39.6665C27.6242 39.6665 27.6431 39.6743 27.6571 39.6881C27.671 39.702 27.679 39.7208 27.6791 39.7404V40.2246C27.6792 40.2344 27.6772 40.2441 27.6735 40.2531C27.6697 40.2622 27.6642 40.2704 27.6573 40.2773C27.6504 40.2843 27.6421 40.2898 27.6331 40.2935C27.624 40.2972 27.6143 40.2992 27.6045 40.2992V40.2992Z" fill="white"/>
<path d="M57.8384 39.5752L56.8368 40.1528V41.309L57.8384 41.8872L58.8395 41.309V40.1528L57.8384 39.5752Z" fill="#27A9E0"/>
<path d="M57.2291 41.0822V40.3788L57.8384 40.0269L58.4477 40.3788V41.0822L57.8384 41.4341L57.2291 41.0822Z" fill="#1C75BB"/>
<path d="M57.8384 39.5752V41.8872L58.8395 41.309V40.1528L57.8384 39.5752Z" fill="#1C75BB"/>
<path d="M57.8384 40.0269V41.4341L58.4477 41.0822V40.3788L57.8384 40.0269Z" fill="#27A9E0"/>
<path d="M57.1693 40.2116C57.1586 40.2116 57.1481 40.2081 57.1395 40.2016C57.131 40.195 57.1248 40.1858 57.122 40.1754C57.1192 40.165 57.12 40.154 57.1241 40.144C57.1282 40.1341 57.1355 40.1258 57.1448 40.1204L57.6642 39.8203C57.6698 39.817 57.6759 39.8148 57.6823 39.8139C57.6887 39.8131 57.6952 39.8134 57.7015 39.8151C57.7077 39.8167 57.7136 39.8196 57.7187 39.8235C57.7239 39.8274 57.7282 39.8323 57.7314 39.8379C57.7347 39.8435 57.7367 39.8497 57.7376 39.8561C57.7384 39.8625 57.7379 39.8691 57.7362 39.8753C57.7345 39.8815 57.7316 39.8874 57.7276 39.8925C57.7236 39.8975 57.7187 39.9018 57.7131 39.905L57.1937 40.2051C57.1863 40.2094 57.1779 40.2116 57.1693 40.2116V40.2116Z" fill="white"/>
<path d="M57.0044 40.7799C56.9979 40.7799 56.9916 40.7786 56.9856 40.7762C56.9797 40.7737 56.9743 40.7701 56.9698 40.7656C56.9652 40.761 56.9616 40.7556 56.9592 40.7497C56.9567 40.7438 56.9554 40.7374 56.9554 40.731V40.4136C56.9554 40.4007 56.9606 40.3882 56.9698 40.3791C56.9789 40.3699 56.9914 40.3647 57.0043 40.3647C57.0173 40.3647 57.0297 40.3699 57.0389 40.3791C57.0481 40.3882 57.0532 40.4007 57.0532 40.4136V40.731C57.0532 40.7374 57.052 40.7438 57.0495 40.7497C57.0471 40.7556 57.0435 40.761 57.0389 40.7656C57.0344 40.7701 57.029 40.7737 57.0231 40.7761C57.0171 40.7786 57.0108 40.7799 57.0044 40.7799V40.7799Z" fill="white"/>
<path d="M21.0191 39.3403L19.8149 40.0356V41.4261L21.0191 42.1214L22.2232 41.4261V40.0356L21.0191 39.3403Z" fill="#27A9E0"/>
<path d="M20.2863 41.1542V40.3078L21.019 39.8843L21.7518 40.3078V41.1542L21.019 41.5772L20.2863 41.1542Z" fill="#1C75BB"/>
<path d="M21.019 39.3403V42.1214L22.2232 41.4261V40.0356L21.019 39.3403Z" fill="#1C75BB"/>
<path d="M21.019 39.8843V41.5772L21.7518 41.1542V40.3078L21.019 39.8843Z" fill="#27A9E0"/>
<path d="M20.2145 40.1061C20.2015 40.1061 20.189 40.1019 20.1787 40.094C20.1684 40.0861 20.161 40.0751 20.1576 40.0626C20.1543 40.0501 20.1552 40.0368 20.1601 40.0248C20.1651 40.0129 20.1738 40.0029 20.1851 39.9964L20.8098 39.6354C20.8165 39.6315 20.8239 39.629 20.8316 39.628C20.8392 39.6269 20.847 39.6274 20.8545 39.6294C20.862 39.6314 20.869 39.6349 20.8751 39.6396C20.8813 39.6443 20.8864 39.6502 20.8903 39.6569C20.8942 39.6636 20.8967 39.671 20.8977 39.6786C20.8987 39.6863 20.8981 39.6941 20.8961 39.7016C20.8941 39.709 20.8906 39.716 20.8859 39.7222C20.8812 39.7283 20.8753 39.7334 20.8686 39.7373L20.2439 40.0983C20.2349 40.1034 20.2248 40.1061 20.2145 40.1061V40.1061Z" fill="white"/>
<path d="M20.016 40.7893C20.0083 40.7893 20.0006 40.7878 19.9935 40.7849C19.9863 40.7819 19.9799 40.7776 19.9744 40.7721C19.9689 40.7667 19.9646 40.7602 19.9616 40.753C19.9587 40.7459 19.9571 40.7382 19.9572 40.7305V40.3488C19.9573 40.3333 19.9636 40.3185 19.9746 40.3075C19.9856 40.2966 20.0005 40.2905 20.016 40.2905C20.0315 40.2905 20.0463 40.2966 20.0574 40.3075C20.0684 40.3185 20.0746 40.3333 20.0748 40.3488V40.7305C20.0748 40.7382 20.0733 40.7459 20.0703 40.753C20.0674 40.7601 20.063 40.7666 20.0576 40.7721C20.0521 40.7775 20.0456 40.7819 20.0385 40.7848C20.0314 40.7878 20.0237 40.7893 20.016 40.7893V40.7893Z" fill="white"/>
<path d="M64.2214 46.4907H14.636V51.7419H64.2214V46.4907Z" fill="#F3B31D"/>
</g>
<rect y="-725" width="7" height="1625" fill="#1E0E62"/>
<defs>
<clipPath id="clip0_1762_2495">
<rect width="51.4286" height="28.5714" fill="white" transform="translate(13.7144 23.4766)"/>
</clipPath>
</defs>
</svg>
