<svg width="45" height="38" viewBox="0 0 45 38" fill="none" xmlns="http://www.w3.org/2000/svg">
<path d="M0.507444 35.8507C0.425013 36.6751 1.02643 37.4101 1.85074 37.4926C2.67506 37.575 3.41012 36.9736 3.49256 36.1493L0.507444 35.8507ZM44.1321 14.1632C44.8247 13.7087 45.0177 12.7788 44.5632 12.0861L37.1563 0.799495C36.7018 0.10689 35.7719 -0.0861153 35.0792 0.368406C34.3866 0.822927 34.1936 1.75286 34.6482 2.44546L41.232 12.478L31.1994 19.0619C30.5068 19.5164 30.3138 20.4464 30.7684 21.139C31.2229 21.8316 32.1528 22.0246 32.8454 21.5701L44.1321 14.1632ZM3.49256 36.1493C4.62501 24.8247 8.2036 18.2898 14.2868 15.0576C20.5151 11.7482 29.8035 11.638 43.0043 14.3778L43.6139 11.4404C30.3147 8.6802 20.103 8.57002 12.8791 12.4084C5.51002 16.3239 1.68407 24.0844 0.507444 35.8507L3.49256 36.1493Z" fill="#FD375D"/>
</svg>
