<svg width="44" height="33" viewBox="0 0 44 33" fill="none" xmlns="http://www.w3.org/2000/svg">
<path d="M0.0049628 31.9005C-0.0499915 32.45 0.350953 32.9401 0.900496 32.995C1.45004 33.05 1.94008 32.6491 1.99504 32.0995L0.0049628 31.9005ZM42.8577 9.74518C43.3195 9.44217 43.4481 8.82221 43.1451 8.36048L38.2072 0.83604C37.9042 0.374303 37.2843 0.245634 36.8225 0.548648C36.3608 0.851662 36.2321 1.47161 36.5351 1.93335L40.9244 8.62174L34.236 13.011C33.7743 13.314 33.6456 13.934 33.9486 14.3957C34.2516 14.8574 34.8716 14.9861 35.3333 14.6831L42.8577 9.74518ZM1.99504 32.0995C3.13485 20.7013 6.75467 13.9622 13.0522 10.6161C19.4465 7.21852 28.8887 7.14506 42.1059 9.88826L42.5123 7.93C29.2295 5.17318 19.1717 5.09972 12.1137 8.8499C4.95895 12.6515 1.17423 20.2078 0.0049628 31.9005L1.99504 32.0995Z" fill="#FD375D"/>
</svg>
