<svg width="24" height="25" viewBox="0 0 24 25" fill="none" xmlns="http://www.w3.org/2000/svg">
<path fill-rule="evenodd" clip-rule="evenodd" d="M1 12.1626C1 6.08747 5.92487 1.1626 12 1.1626C18.0751 1.1626 23 6.08747 23 12.1626C23 18.2377 18.0751 23.1626 12 23.1626C5.92487 23.1626 1 18.2377 1 12.1626Z" fill="#A3CB38"/>
<path fill-rule="evenodd" clip-rule="evenodd" d="M17.3107 8.20557C17.7012 8.59609 17.7012 9.22926 17.3107 9.61978L11.1036 16.1198C10.7131 16.5103 10.0799 16.5103 9.68938 16.1198L6.68938 13.1198C6.29885 12.7293 6.29885 12.0961 6.68938 11.7056C7.0799 11.315 7.71307 11.315 8.10359 11.7056L10.3965 13.9985L15.8965 8.20557C16.287 7.81504 16.9202 7.81504 17.3107 8.20557Z" fill="white"/>
</svg>
