<svg width="40" height="40" viewBox="0 0 40 40" fill="none" xmlns="http://www.w3.org/2000/svg">
<path d="M39.1633 10.3101C38.9374 9.45891 38.4917 8.68201 37.871 8.05722C37.2503 7.43243 36.4764 6.98168 35.6267 6.75011C32.5083 5.90845 20 5.90845 20 5.90845C20 5.90845 7.49167 5.90845 4.37167 6.75011C3.52235 6.98209 2.74882 7.433 2.12846 8.05775C1.5081 8.6825 1.06265 9.45918 0.836667 10.3101C0 13.4501 0 20.0001 0 20.0001C0 20.0001 0 26.5501 0.836667 29.6901C1.06264 30.5413 1.50829 31.3182 2.12899 31.943C2.74968 32.5678 3.52363 33.0185 4.37333 33.2501C7.49167 34.0918 20 34.0918 20 34.0918C20 34.0918 32.5083 34.0918 35.6283 33.2501C36.4781 33.0187 37.2521 32.568 37.8729 31.9432C38.4936 31.3184 38.9392 30.5414 39.165 29.6901C40 26.5501 40 20.0001 40 20.0001C40 20.0001 40 13.4501 39.1633 10.3101ZM15.9083 25.9468V14.0534L26.3633 20.0001L15.9083 25.9468Z" fill="#FE0000"/>
</svg>
