<svg width="100" height="44" viewBox="0 0 100 44" fill="none" xmlns="http://www.w3.org/2000/svg">
<g clip-path="url(#clip0_2508_3359)">
<path d="M4.317 0C3.53569 0.779392 2.91822 1.70723 2.50093 2.72889C2.08364 3.75055 1.87498 4.84538 1.88723 5.94891L15.4913 11.1746L4.317 0Z" fill="url(#paint0_linear_2508_3359)"/>
<path d="M9.8114 8.99172L16.1879 11.4657L16.501 11.5847L16.3819 11.8934C15.8165 13.3435 14.8727 14.6156 13.6489 15.5773C12.4251 16.539 10.966 17.1551 9.42334 17.3616V21.7451C10.7353 21.7462 12.0345 21.4884 13.2467 20.9865C14.4588 20.4846 15.56 19.7484 16.487 18.82C17.4141 17.8917 18.1488 16.7896 18.6492 15.5767C19.1495 14.3639 19.4055 13.0643 19.4026 11.7523V1.76395C17.2358 1.76348 15.1279 2.46858 13.3974 3.77262C11.667 5.07665 10.4082 6.9087 9.8114 8.99172Z" fill="url(#paint1_radial_2508_3359)"/>
<path d="M24.3814 6.76474H19.4028V11.7523C20.7241 11.75 21.9904 11.2235 22.9238 10.2884C23.8572 9.35327 24.3814 8.086 24.3814 6.76474Z" fill="url(#paint2_radial_2508_3359)"/>
<path d="M16.0692 8.42724C16.9874 8.42724 17.7317 7.68291 17.7317 6.76472C17.7317 5.84654 16.9874 5.1022 16.0692 5.1022C15.1511 5.1022 14.4067 5.84654 14.4067 6.76472C14.4067 7.68291 15.1511 8.42724 16.0692 8.42724Z" fill="white"/>
<path d="M16.9027 6.76472C16.9036 6.92975 16.8555 7.09133 16.7644 7.22897C16.6734 7.36661 16.5435 7.47412 16.3913 7.53788C16.2391 7.60164 16.0714 7.61878 15.9094 7.58712C15.7474 7.55546 15.5985 7.47643 15.4815 7.36004C15.3645 7.24366 15.2847 7.09516 15.2522 6.93336C15.2197 6.77157 15.2359 6.60376 15.2989 6.45121C15.3618 6.29865 15.4686 6.16822 15.6058 6.07645C15.7429 5.98467 15.9042 5.93567 16.0693 5.93567C16.2896 5.93567 16.5009 6.02287 16.6571 6.17822C16.8132 6.33358 16.9016 6.54444 16.9027 6.76472Z" fill="#010101"/>
<path d="M2.77344 21.723C2.77344 23.4867 3.47405 25.1782 4.72115 26.4253C5.33865 27.0428 6.07173 27.5327 6.87854 27.8669C7.68534 28.2011 8.55007 28.3731 9.42335 28.3731V21.723H2.77344Z" fill="#80BC00"/>
<path d="M19.4028 1.76395V6.7471H24.3814C24.3803 5.4266 23.8555 4.16047 22.9222 3.22632C21.9889 2.29218 20.7233 1.76628 19.4028 1.76395Z" fill="url(#paint3_radial_2508_3359)"/>
<path d="M5.33569 16.5326C6.35432 16.9235 7.43997 17.11 8.53066 17.0813C9.62136 17.0527 10.6957 16.8094 11.6924 16.3656C12.6891 15.9217 13.5886 15.2858 14.3395 14.4942C15.0905 13.7027 15.6782 12.771 16.069 11.7523L0.555515 5.79456C0.163908 6.81346 -0.02308 7.89956 0.00523779 8.99077C0.0335556 10.082 0.276624 11.1569 0.720551 12.1541C1.16448 13.1514 1.80056 14.0513 2.59245 14.8026C3.38434 15.5539 4.31651 16.1417 5.33569 16.5326Z" fill="url(#paint4_linear_2508_3359)"/>
<path d="M39.3395 27.2177V13.922L36.0145 14.116L27.7021 27.8924L31.693 27.6631L36.0145 20.4971V27.4117L39.3395 27.2177Z" fill="#B1B1B1"/>
<path d="M32.6895 42.5596L36.0144 42.37V29.0742L32.6895 29.2639V42.5596Z" fill="#B1B1B1"/>
<path d="M40.1685 27.1692L43.4934 26.9796V20.6779L46.4832 26.8032L50.1389 26.5915V13.2957L46.8184 13.4898V19.7871L43.8241 13.6618L40.1685 13.8734V27.1692Z" fill="#B1B1B1"/>
<path d="M28.95 24.4968L22.719 24.8584V14.8833L19.394 15.0773V28.3731L26.873 27.9409L28.95 24.4968Z" fill="#B1B1B1"/>
<path d="M43.4932 34.9394L40.4989 28.8141L36.8433 29.0258V42.3215L40.1682 42.1275V35.8302L43.1624 41.9555L46.8181 41.7438V28.4481L43.4932 28.6377V34.9394Z" fill="#B1B1B1"/>
<path d="M96.0136 38.895L100 38.6657L91.692 25.8506L88.3671 26.0403V34.0177L83.3796 26.3313L80.0547 26.5254V39.8211L83.3796 39.6271V32.7124L87.7012 39.3757L91.692 39.1464V32.2317L96.0136 38.895Z" fill="#B1B1B1"/>
<path d="M58.4512 27.7822V41.0691L65.9478 40.6281L68.4393 37.9822V29.6916L65.9301 27.3412L58.4512 27.7822ZM65.0967 36.5402L64.2676 37.4221L61.7761 37.5677V30.9043L64.2676 30.7632L65.0967 31.5438V36.5402Z" fill="#B1B1B1"/>
<path d="M69.2549 29.6431V40.4429L76.7515 40.0019L79.243 37.356V26.5695L71.7464 27.0104L69.2549 29.6431ZM72.5754 31.1116L73.4089 30.2296L75.9004 30.0841V35.9051L75.0713 36.7871L72.5754 36.9326V31.1116Z" fill="#B1B1B1"/>
<path d="M47.6475 30.8911V41.6953L55.1264 41.2631L57.6179 38.626V34.4719L54.2974 34.6616V37.1575L53.4639 38.0351L50.9724 38.1806V32.364L51.8014 31.482L57.6179 31.1469V27.8219L50.139 28.254L47.6475 30.8911Z" fill="#B1B1B1"/>
<path d="M60.9426 23.4737V19.3196L57.6177 19.5137V22.0052L56.7886 22.8828L54.2971 23.0283V17.2117L55.1262 16.3297L60.9426 15.9946V12.6696L53.4637 13.1061L50.9722 15.7432V26.543L58.4511 26.1108L60.9426 23.4737Z" fill="#B1B1B1"/>
<path d="M30.9696 29.3653L26.9788 29.5946L24.3815 33.9075L22.719 34.0001V29.8416L19.394 30.0356V43.3314L22.719 43.1373V37.3251L24.3815 37.2281L28.0107 42.833L32.0015 42.5993L27.3316 35.398L30.9696 29.3653Z" fill="#B1B1B1"/>
</g>
<defs>
<linearGradient id="paint0_linear_2508_3359" x1="2.21985" y1="2.09516" x2="13.9725" y2="13.8475" gradientUnits="userSpaceOnUse">
<stop stop-color="#19468D"/>
<stop offset="1" stop-color="#00A0DD"/>
</linearGradient>
<radialGradient id="paint1_radial_2508_3359" cx="0" cy="0" r="1" gradientUnits="userSpaceOnUse" gradientTransform="translate(20.7785 10.723) scale(9.99162 9.99188)">
<stop stop-color="#00A0DD"/>
<stop offset="1" stop-color="#19468D"/>
</radialGradient>
<radialGradient id="paint2_radial_2508_3359" cx="0" cy="0" r="1" gradientUnits="userSpaceOnUse" gradientTransform="translate(20.7778 5.72578) scale(5.00154)">
<stop stop-color="#343636"/>
<stop offset="1"/>
</radialGradient>
<radialGradient id="paint3_radial_2508_3359" cx="0" cy="0" r="1" gradientUnits="userSpaceOnUse" gradientTransform="translate(20.8827 5.75752) rotate(-90) scale(5.00167)">
<stop stop-color="#FFCF01"/>
<stop offset="1" stop-color="#F58220"/>
</radialGradient>
<linearGradient id="paint4_linear_2508_3359" x1="434.491" y1="-947.643" x2="999.824" y2="-730.637" gradientUnits="userSpaceOnUse">
<stop stop-color="#19468D"/>
<stop offset="1" stop-color="#00A0DD"/>
</linearGradient>
<clipPath id="clip0_2508_3359">
<rect width="100" height="43.3314" fill="white"/>
</clipPath>
</defs>
</svg>
