<svg width="34" height="34" viewBox="0 0 34 34" fill="none" xmlns="http://www.w3.org/2000/svg">
<circle cx="17" cy="17" r="17" fill="#FD375D"/>
<path d="M19.165 19.74L20.285 18.62C20.4359 18.471 20.6267 18.3691 20.8344 18.3265C21.0421 18.2839 21.2577 18.3025 21.455 18.38L22.82 18.925C23.0194 19.006 23.1904 19.1441 23.3114 19.3221C23.4324 19.5 23.498 19.7098 23.5 19.925V22.425C23.4988 22.5714 23.4681 22.716 23.4095 22.8502C23.351 22.9844 23.2659 23.1054 23.1594 23.2058C23.0529 23.3062 22.9272 23.3841 22.7898 23.4346C22.6524 23.4852 22.5062 23.5074 22.36 23.5C12.795 22.905 10.865 14.805 10.5 11.705C10.4831 11.5528 10.4985 11.3987 10.5454 11.2529C10.5923 11.1071 10.6695 10.9728 10.772 10.859C10.8745 10.7452 11 10.6543 11.1401 10.5925C11.2802 10.5306 11.4318 10.4991 11.585 10.5H14C14.2155 10.5007 14.4259 10.5658 14.6041 10.6869C14.7823 10.8081 14.9202 10.9798 15 11.18L15.545 12.545C15.6251 12.7416 15.6456 12.9573 15.6038 13.1654C15.562 13.3735 15.4598 13.5647 15.31 13.715L14.19 14.835C14.19 14.835 14.835 19.2 19.165 19.74Z" fill="white"/>
</svg>
